# xmcd
#
# Track frame offsets:
#	150
#	12456
#	30978
#	45968
#	57181
#	69091
#	80011
#	95105
#	105154
#	124954
#	136064
#	150435
#	159524
#
# Disc length: 2340 seconds
#
# Revision: 1
# Processed by: cddbd v1.5.2PL0 Copyright (c) Steve Scherf et al.
# Submitted via: audiograbber 1.83.01
#
DISCID=9309220d
DTITLE=Das Stubalm-Duo - Kennst du die Steiermark
DYEAR=2009
DGENRE=Folklore
TTITLE0=Kennst du die Steiermark
TTITLE1=Stubalm Lied
TTITLE2=Das schönste Bliamal
TTITLE3=Wenn die Steirabuam jodeln
TTITLE4=Draussen beim Lindenbaum
TTITLE5=Mir san holt von Salzburg
TTITLE6=Waldeslust
TTITLE7=I bin da Alpenrocker
TTITLE8=Vor meinem Hütterl
TTITLE9=Und beim Schuastermoaster
TTITLE10=Wohl auf der Alm
TTITLE11=Gries Polka
TTITLE12=Mei liabes Muatterl
EXTD=Bearbeitung: Kiedl Hans
EXTT0=
EXTT1=
EXTT2=
EXTT3=
EXTT4=
EXTT5=
EXTT6=
EXTT7=
EXTT8=
EXTT9=
EXTT10=
EXTT11=
EXTT12=
PLAYORDER=
